<svg width="25" height="24" viewBox="0 0 25 24" fill="none" xmlns="http://www.w3.org/2000/svg">
<path d="M12.7757 19.7821L17.537 15.0208C17.8275 14.7303 17.8275 14.2591 17.537 13.9686C17.2464 13.6781 16.7754 13.6781 16.4849 13.9686L12.9936 17.4599V4.74396C12.9936 4.33312 12.6604 4 12.2496 4C11.8388 4 11.5056 4.33312 11.5056 4.74396V17.4599L8.01433 13.9688C7.72377 13.6782 7.25275 13.6782 6.96219 13.9688C6.81703 14.114 6.7443 14.3044 6.7443 14.4948C6.7443 14.6852 6.81703 14.8756 6.96219 15.0209L11.7235 19.7821C12.0141 20.0727 12.4851 20.0727 12.7757 19.7821Z" fill="#484F67"/>
</svg>
