<svg width="25" height="24" viewBox="0 0 25 24" fill="none" xmlns="http://www.w3.org/2000/svg">
<path d="M12.4823 17.299L17.5448 12.2365C18.7886 10.9865 18.9698 8.94276 17.7948 7.63651C17.5001 7.30733 17.1414 7.04169 16.7406 6.85581C16.3398 6.66994 15.9053 6.56774 15.4637 6.55546C15.022 6.54317 14.5825 6.62106 14.172 6.78437C13.7615 6.94768 13.3886 7.19297 13.0761 7.50526L12.1261 8.46151L11.3073 7.63651C10.0573 6.39276 8.01356 6.21151 6.70731 7.38651C6.37813 7.68119 6.11249 8.03989 5.92662 8.4407C5.74074 8.84151 5.63854 9.276 5.62626 9.71764C5.61397 10.1593 5.69186 10.5988 5.85517 11.0093C6.01848 11.4198 6.26377 11.7927 6.57606 12.1053L11.7698 17.299C11.8646 17.3929 11.9926 17.4456 12.1261 17.4456C12.2595 17.4456 12.3875 17.3929 12.4823 17.299Z" stroke="#484F67" stroke-opacity="0.5" stroke-width="1.2" stroke-linecap="round" stroke-linejoin="round"/>
</svg>
