<svg width="18" height="16" viewBox="0 0 18 16" fill="none" xmlns="http://www.w3.org/2000/svg">
<path d="M1.2334 0.817383C1.09017 0.817383 0.969727 0.84668 0.87207 0.905273C0.774414 0.963867 0.696289 1.04199 0.637695 1.13965C0.585612 1.23079 0.546549 1.33171 0.520508 1.44238C0.494466 1.57259 0.474935 1.74837 0.461914 1.96973C0.455404 2.19108 0.452148 2.43848 0.452148 2.71191C0.452148 4.90592 0.930664 6.49772 1.8877 7.4873C2.84473 8.47689 4.39746 8.97168 6.5459 8.97168H13.2842L15.5303 8.86426L12.5811 11.5889L10.2666 13.9424C10.195 14.0075 10.1396 14.0889 10.1006 14.1865C10.068 14.2777 10.0518 14.3721 10.0518 14.4697C10.0518 14.6781 10.1201 14.8506 10.2568 14.9873C10.4001 15.1175 10.5758 15.1826 10.7842 15.1826C10.9925 15.1826 11.1846 15.098 11.3604 14.9287L17.4932 8.7959C17.6689 8.63314 17.7568 8.44434 17.7568 8.22949C17.7568 8.02116 17.6689 7.83236 17.4932 7.66309L11.3311 1.50098C11.1748 1.34473 10.9925 1.2666 10.7842 1.2666C10.5758 1.2666 10.4001 1.33496 10.2568 1.47168C10.1201 1.6084 10.0518 1.78092 10.0518 1.98926C10.0518 2.09342 10.068 2.19108 10.1006 2.28223C10.1396 2.37337 10.195 2.45475 10.2666 2.52637L12.5811 4.87988L15.54 7.60449L13.2842 7.4873H6.62402C5.4847 7.4873 4.57324 7.32129 3.88965 6.98926C3.20605 6.65723 2.71126 6.13639 2.40527 5.42676C2.10579 4.71712 1.95605 3.78288 1.95605 2.62402C1.95605 2.39616 1.95931 2.19759 1.96582 2.02832C1.97884 1.85905 1.98535 1.7028 1.98535 1.55957C1.98535 1.33822 1.91374 1.15918 1.77051 1.02246C1.63379 0.885742 1.45475 0.817383 1.2334 0.817383Z" fill="#484F67"/>
</svg>
